<mxfile host="Electron" modified="2024-02-21T08:41:32.519Z" agent="Mozilla/5.0 (Macintosh; Intel Mac OS X 10_15_7) AppleWebKit/537.36 (KHTML, like Gecko) draw.io/23.1.5 Chrome/120.0.6099.109 Electron/28.1.0 Safari/537.36" etag="YUV-TU8cvR2a-A8KtzMe" version="23.1.5" type="device">
  <diagram name="Страница — 1" id="-rvB1fvqYq-ooYMApM58">
    <mxGraphModel dx="2420" dy="1008" grid="1" gridSize="10" guides="1" tooltips="1" connect="1" arrows="1" fold="1" page="1" pageScale="1" pageWidth="827" pageHeight="1169" math="0" shadow="0">
      <root>
        <object label="" tag="dsfdf" id="0">
          <mxCell />
        </object>
        <mxCell id="1" parent="0" />
        <mxCell id="AbjM8CAv7qtLpByGkBFY-22" style="edgeStyle=orthogonalEdgeStyle;rounded=0;orthogonalLoop=1;jettySize=auto;html=1;exitX=1;exitY=0.5;exitDx=0;exitDy=0;entryX=0;entryY=0.5;entryDx=0;entryDy=0;fillColor=#dae8fc;strokeColor=#6c8ebf;" parent="1" source="AbjM8CAv7qtLpByGkBFY-3" target="AbjM8CAv7qtLpByGkBFY-4" edge="1">
          <mxGeometry relative="1" as="geometry" />
        </mxCell>
        <mxCell id="AbjM8CAv7qtLpByGkBFY-3" value="Формирование и проверка гипотез" style="rounded=0;whiteSpace=wrap;html=1;fillColor=#dae8fc;strokeColor=#6c8ebf;" parent="1" vertex="1">
          <mxGeometry x="40" y="40" width="120" height="60" as="geometry" />
        </mxCell>
        <mxCell id="AbjM8CAv7qtLpByGkBFY-23" style="edgeStyle=orthogonalEdgeStyle;rounded=0;orthogonalLoop=1;jettySize=auto;html=1;exitX=1;exitY=0.5;exitDx=0;exitDy=0;entryX=0;entryY=0.5;entryDx=0;entryDy=0;fillColor=#dae8fc;strokeColor=#6c8ebf;" parent="1" source="AbjM8CAv7qtLpByGkBFY-4" target="AbjM8CAv7qtLpByGkBFY-5" edge="1">
          <mxGeometry relative="1" as="geometry" />
        </mxCell>
        <mxCell id="AbjM8CAv7qtLpByGkBFY-4" value="Изучение рынка" style="rounded=0;whiteSpace=wrap;html=1;fillColor=#dae8fc;strokeColor=#6c8ebf;" parent="1" vertex="1">
          <mxGeometry x="200" y="40" width="120" height="60" as="geometry" />
        </mxCell>
        <mxCell id="AbjM8CAv7qtLpByGkBFY-24" style="edgeStyle=orthogonalEdgeStyle;rounded=0;orthogonalLoop=1;jettySize=auto;html=1;exitX=1;exitY=0.5;exitDx=0;exitDy=0;entryX=0;entryY=0.5;entryDx=0;entryDy=0;fillColor=#dae8fc;strokeColor=#6c8ebf;" parent="1" source="AbjM8CAv7qtLpByGkBFY-5" target="AbjM8CAv7qtLpByGkBFY-6" edge="1">
          <mxGeometry relative="1" as="geometry" />
        </mxCell>
        <mxCell id="AbjM8CAv7qtLpByGkBFY-5" value="Определение стека" style="rounded=0;whiteSpace=wrap;html=1;fillColor=#dae8fc;strokeColor=#6c8ebf;" parent="1" vertex="1">
          <mxGeometry x="360" y="40" width="120" height="60" as="geometry" />
        </mxCell>
        <mxCell id="AbjM8CAv7qtLpByGkBFY-25" style="edgeStyle=orthogonalEdgeStyle;rounded=0;orthogonalLoop=1;jettySize=auto;html=1;exitX=1;exitY=0.5;exitDx=0;exitDy=0;entryX=0;entryY=0.5;entryDx=0;entryDy=0;fillColor=#dae8fc;strokeColor=#6c8ebf;" parent="1" source="AbjM8CAv7qtLpByGkBFY-6" target="AbjM8CAv7qtLpByGkBFY-7" edge="1">
          <mxGeometry relative="1" as="geometry" />
        </mxCell>
        <mxCell id="AbjM8CAv7qtLpByGkBFY-6" value="Декомпозиция" style="rounded=0;whiteSpace=wrap;html=1;fillColor=#dae8fc;strokeColor=#6c8ebf;" parent="1" vertex="1">
          <mxGeometry x="520" y="40" width="120" height="60" as="geometry" />
        </mxCell>
        <mxCell id="AbjM8CAv7qtLpByGkBFY-26" style="edgeStyle=orthogonalEdgeStyle;rounded=0;orthogonalLoop=1;jettySize=auto;html=1;exitX=1;exitY=0.5;exitDx=0;exitDy=0;entryX=0;entryY=0.5;entryDx=0;entryDy=0;fillColor=#dae8fc;strokeColor=#6c8ebf;" parent="1" source="AbjM8CAv7qtLpByGkBFY-7" target="AbjM8CAv7qtLpByGkBFY-8" edge="1">
          <mxGeometry relative="1" as="geometry" />
        </mxCell>
        <mxCell id="AbjM8CAv7qtLpByGkBFY-7" value="Оценка сроков" style="rounded=0;whiteSpace=wrap;html=1;fillColor=#dae8fc;strokeColor=#6c8ebf;" parent="1" vertex="1">
          <mxGeometry x="680" y="40" width="120" height="60" as="geometry" />
        </mxCell>
        <mxCell id="AbjM8CAv7qtLpByGkBFY-27" style="edgeStyle=orthogonalEdgeStyle;rounded=0;orthogonalLoop=1;jettySize=auto;html=1;exitX=0.5;exitY=1;exitDx=0;exitDy=0;entryX=0.5;entryY=0;entryDx=0;entryDy=0;fillColor=#dae8fc;strokeColor=#6c8ebf;" parent="1" source="AbjM8CAv7qtLpByGkBFY-8" target="AbjM8CAv7qtLpByGkBFY-9" edge="1">
          <mxGeometry relative="1" as="geometry" />
        </mxCell>
        <mxCell id="AbjM8CAv7qtLpByGkBFY-8" value="Оценка критических путей" style="rounded=0;whiteSpace=wrap;html=1;fillColor=#dae8fc;strokeColor=#6c8ebf;" parent="1" vertex="1">
          <mxGeometry x="840" y="40" width="120" height="60" as="geometry" />
        </mxCell>
        <mxCell id="AbjM8CAv7qtLpByGkBFY-28" style="edgeStyle=orthogonalEdgeStyle;rounded=0;orthogonalLoop=1;jettySize=auto;html=1;exitX=0;exitY=0.5;exitDx=0;exitDy=0;entryX=1;entryY=0.5;entryDx=0;entryDy=0;fillColor=#dae8fc;strokeColor=#6c8ebf;" parent="1" source="AbjM8CAv7qtLpByGkBFY-9" target="AbjM8CAv7qtLpByGkBFY-10" edge="1">
          <mxGeometry relative="1" as="geometry" />
        </mxCell>
        <mxCell id="AbjM8CAv7qtLpByGkBFY-9" value="Формирование бюджета" style="rounded=0;whiteSpace=wrap;html=1;fillColor=#dae8fc;strokeColor=#6c8ebf;" parent="1" vertex="1">
          <mxGeometry x="840" y="140" width="120" height="60" as="geometry" />
        </mxCell>
        <mxCell id="AbjM8CAv7qtLpByGkBFY-29" style="edgeStyle=orthogonalEdgeStyle;rounded=0;orthogonalLoop=1;jettySize=auto;html=1;exitX=0;exitY=0.5;exitDx=0;exitDy=0;entryX=1;entryY=0.5;entryDx=0;entryDy=0;fillColor=#dae8fc;strokeColor=#6c8ebf;" parent="1" source="AbjM8CAv7qtLpByGkBFY-10" target="AbjM8CAv7qtLpByGkBFY-11" edge="1">
          <mxGeometry relative="1" as="geometry" />
        </mxCell>
        <mxCell id="AbjM8CAv7qtLpByGkBFY-10" value="Архитектурное проектирование" style="rounded=0;whiteSpace=wrap;html=1;fillColor=#dae8fc;strokeColor=#6c8ebf;" parent="1" vertex="1">
          <mxGeometry x="680" y="140" width="120" height="60" as="geometry" />
        </mxCell>
        <mxCell id="AbjM8CAv7qtLpByGkBFY-30" style="edgeStyle=orthogonalEdgeStyle;rounded=0;orthogonalLoop=1;jettySize=auto;html=1;exitX=0;exitY=0.5;exitDx=0;exitDy=0;entryX=1;entryY=0.5;entryDx=0;entryDy=0;fillColor=#dae8fc;strokeColor=#6c8ebf;" parent="1" source="AbjM8CAv7qtLpByGkBFY-11" target="AbjM8CAv7qtLpByGkBFY-12" edge="1">
          <mxGeometry relative="1" as="geometry" />
        </mxCell>
        <mxCell id="AbjM8CAv7qtLpByGkBFY-11" value="Дизайн-ревью" style="rounded=0;whiteSpace=wrap;html=1;fillColor=#dae8fc;strokeColor=#6c8ebf;" parent="1" vertex="1">
          <mxGeometry x="520" y="140" width="120" height="60" as="geometry" />
        </mxCell>
        <mxCell id="AbjM8CAv7qtLpByGkBFY-31" style="edgeStyle=orthogonalEdgeStyle;rounded=0;orthogonalLoop=1;jettySize=auto;html=1;exitX=0;exitY=0.5;exitDx=0;exitDy=0;entryX=1;entryY=0.5;entryDx=0;entryDy=0;fillColor=#dae8fc;strokeColor=#6c8ebf;" parent="1" source="AbjM8CAv7qtLpByGkBFY-12" target="AbjM8CAv7qtLpByGkBFY-13" edge="1">
          <mxGeometry relative="1" as="geometry" />
        </mxCell>
        <mxCell id="AbjM8CAv7qtLpByGkBFY-12" value="Критерии валидации" style="rounded=0;whiteSpace=wrap;html=1;fillColor=#dae8fc;strokeColor=#6c8ebf;" parent="1" vertex="1">
          <mxGeometry x="360" y="140" width="120" height="60" as="geometry" />
        </mxCell>
        <mxCell id="AbjM8CAv7qtLpByGkBFY-32" style="edgeStyle=orthogonalEdgeStyle;rounded=0;orthogonalLoop=1;jettySize=auto;html=1;exitX=0;exitY=0.5;exitDx=0;exitDy=0;entryX=1;entryY=0.5;entryDx=0;entryDy=0;fillColor=#dae8fc;strokeColor=#6c8ebf;" parent="1" source="AbjM8CAv7qtLpByGkBFY-13" target="AbjM8CAv7qtLpByGkBFY-14" edge="1">
          <mxGeometry relative="1" as="geometry" />
        </mxCell>
        <mxCell id="AbjM8CAv7qtLpByGkBFY-13" value="DFM" style="rounded=0;whiteSpace=wrap;html=1;fillColor=#dae8fc;strokeColor=#6c8ebf;" parent="1" vertex="1">
          <mxGeometry x="200" y="140" width="120" height="60" as="geometry" />
        </mxCell>
        <mxCell id="AbjM8CAv7qtLpByGkBFY-33" style="edgeStyle=orthogonalEdgeStyle;rounded=0;orthogonalLoop=1;jettySize=auto;html=1;exitX=0.5;exitY=1;exitDx=0;exitDy=0;entryX=0.5;entryY=0;entryDx=0;entryDy=0;" parent="1" source="AbjM8CAv7qtLpByGkBFY-14" target="AbjM8CAv7qtLpByGkBFY-15" edge="1">
          <mxGeometry relative="1" as="geometry" />
        </mxCell>
        <mxCell id="AbjM8CAv7qtLpByGkBFY-14" value="Пилотное производство" style="rounded=0;whiteSpace=wrap;html=1;fillColor=#dae8fc;strokeColor=#6c8ebf;" parent="1" vertex="1">
          <mxGeometry x="40" y="140" width="120" height="60" as="geometry" />
        </mxCell>
        <mxCell id="AbjM8CAv7qtLpByGkBFY-34" style="edgeStyle=orthogonalEdgeStyle;rounded=0;orthogonalLoop=1;jettySize=auto;html=1;exitX=0.5;exitY=1;exitDx=0;exitDy=0;entryX=0.5;entryY=0;entryDx=0;entryDy=0;fillColor=#fff2cc;strokeColor=#d6b656;" parent="1" source="AbjM8CAv7qtLpByGkBFY-15" target="AbjM8CAv7qtLpByGkBFY-17" edge="1">
          <mxGeometry relative="1" as="geometry" />
        </mxCell>
        <mxCell id="AbjM8CAv7qtLpByGkBFY-35" style="rounded=0;orthogonalLoop=1;jettySize=auto;html=1;exitX=0.75;exitY=1;exitDx=0;exitDy=0;entryX=0.5;entryY=0;entryDx=0;entryDy=0;fillColor=#fff2cc;strokeColor=#d6b656;" parent="1" source="AbjM8CAv7qtLpByGkBFY-15" target="AbjM8CAv7qtLpByGkBFY-16" edge="1">
          <mxGeometry relative="1" as="geometry" />
        </mxCell>
        <mxCell id="AbjM8CAv7qtLpByGkBFY-36" style="rounded=0;orthogonalLoop=1;jettySize=auto;html=1;exitX=0.25;exitY=1;exitDx=0;exitDy=0;entryX=0.5;entryY=0;entryDx=0;entryDy=0;fillColor=#fff2cc;strokeColor=#d6b656;" parent="1" source="AbjM8CAv7qtLpByGkBFY-15" target="AbjM8CAv7qtLpByGkBFY-18" edge="1">
          <mxGeometry relative="1" as="geometry" />
        </mxCell>
        <mxCell id="AbjM8CAv7qtLpByGkBFY-15" value="Установочная серия" style="rounded=0;whiteSpace=wrap;html=1;fillColor=#fff2cc;strokeColor=#d6b656;" parent="1" vertex="1">
          <mxGeometry x="40" y="240" width="120" height="60" as="geometry" />
        </mxCell>
        <mxCell id="AbjM8CAv7qtLpByGkBFY-39" style="rounded=0;orthogonalLoop=1;jettySize=auto;html=1;exitX=0.25;exitY=1;exitDx=0;exitDy=0;entryX=0.5;entryY=0;entryDx=0;entryDy=0;fillColor=#fff2cc;strokeColor=#d6b656;" parent="1" source="AbjM8CAv7qtLpByGkBFY-16" target="AbjM8CAv7qtLpByGkBFY-20" edge="1">
          <mxGeometry relative="1" as="geometry" />
        </mxCell>
        <mxCell id="AbjM8CAv7qtLpByGkBFY-40" style="rounded=0;orthogonalLoop=1;jettySize=auto;html=1;exitX=0.75;exitY=1;exitDx=0;exitDy=0;entryX=0.5;entryY=0;entryDx=0;entryDy=0;fillColor=#fff2cc;strokeColor=#d6b656;" parent="1" source="AbjM8CAv7qtLpByGkBFY-16" target="AbjM8CAv7qtLpByGkBFY-19" edge="1">
          <mxGeometry relative="1" as="geometry" />
        </mxCell>
        <mxCell id="AbjM8CAv7qtLpByGkBFY-16" value="Стенды прошивки и тестирования" style="rounded=0;whiteSpace=wrap;html=1;fillColor=#fff2cc;strokeColor=#d6b656;" parent="1" vertex="1">
          <mxGeometry x="200" y="340" width="120" height="60" as="geometry" />
        </mxCell>
        <mxCell id="AbjM8CAv7qtLpByGkBFY-38" style="rounded=0;orthogonalLoop=1;jettySize=auto;html=1;exitX=0.5;exitY=1;exitDx=0;exitDy=0;entryX=0.75;entryY=0;entryDx=0;entryDy=0;fillColor=#fff2cc;strokeColor=#d6b656;" parent="1" source="AbjM8CAv7qtLpByGkBFY-17" target="AbjM8CAv7qtLpByGkBFY-21" edge="1">
          <mxGeometry relative="1" as="geometry" />
        </mxCell>
        <mxCell id="AbjM8CAv7qtLpByGkBFY-17" value="Тестирование при производстве" style="rounded=0;whiteSpace=wrap;html=1;fillColor=#fff2cc;strokeColor=#d6b656;" parent="1" vertex="1">
          <mxGeometry x="40" y="340" width="120" height="60" as="geometry" />
        </mxCell>
        <mxCell id="AbjM8CAv7qtLpByGkBFY-37" style="rounded=0;orthogonalLoop=1;jettySize=auto;html=1;exitX=0.5;exitY=1;exitDx=0;exitDy=0;entryX=0.25;entryY=0;entryDx=0;entryDy=0;fillColor=#fff2cc;strokeColor=#d6b656;" parent="1" source="AbjM8CAv7qtLpByGkBFY-18" target="AbjM8CAv7qtLpByGkBFY-21" edge="1">
          <mxGeometry relative="1" as="geometry" />
        </mxCell>
        <mxCell id="AbjM8CAv7qtLpByGkBFY-18" value="Тестирование софта" style="rounded=0;whiteSpace=wrap;html=1;fillColor=#fff2cc;strokeColor=#d6b656;" parent="1" vertex="1">
          <mxGeometry x="-120" y="340" width="120" height="60" as="geometry" />
        </mxCell>
        <mxCell id="AbjM8CAv7qtLpByGkBFY-44" style="rounded=0;orthogonalLoop=1;jettySize=auto;html=1;exitX=0.5;exitY=1;exitDx=0;exitDy=0;entryX=0.75;entryY=0;entryDx=0;entryDy=0;" parent="1" source="AbjM8CAv7qtLpByGkBFY-19" target="AbjM8CAv7qtLpByGkBFY-41" edge="1">
          <mxGeometry relative="1" as="geometry" />
        </mxCell>
        <mxCell id="AbjM8CAv7qtLpByGkBFY-19" value="Процесс прошивки" style="rounded=0;whiteSpace=wrap;html=1;fillColor=#fff2cc;strokeColor=#d6b656;" parent="1" vertex="1">
          <mxGeometry x="280" y="440" width="120" height="60" as="geometry" />
        </mxCell>
        <mxCell id="AbjM8CAv7qtLpByGkBFY-43" style="edgeStyle=orthogonalEdgeStyle;rounded=0;orthogonalLoop=1;jettySize=auto;html=1;exitX=0.5;exitY=1;exitDx=0;exitDy=0;" parent="1" source="AbjM8CAv7qtLpByGkBFY-20" target="AbjM8CAv7qtLpByGkBFY-41" edge="1">
          <mxGeometry relative="1" as="geometry" />
        </mxCell>
        <mxCell id="AbjM8CAv7qtLpByGkBFY-20" value="Процесс корпусирования и печати SN" style="rounded=0;whiteSpace=wrap;html=1;fillColor=#fff2cc;strokeColor=#d6b656;" parent="1" vertex="1">
          <mxGeometry x="120" y="440" width="120" height="60" as="geometry" />
        </mxCell>
        <mxCell id="AbjM8CAv7qtLpByGkBFY-42" style="rounded=0;orthogonalLoop=1;jettySize=auto;html=1;exitX=0.5;exitY=1;exitDx=0;exitDy=0;entryX=0.25;entryY=0;entryDx=0;entryDy=0;" parent="1" source="AbjM8CAv7qtLpByGkBFY-21" target="AbjM8CAv7qtLpByGkBFY-41" edge="1">
          <mxGeometry relative="1" as="geometry" />
        </mxCell>
        <mxCell id="AbjM8CAv7qtLpByGkBFY-21" value="CI/CD процессы" style="rounded=0;whiteSpace=wrap;html=1;fillColor=#fff2cc;strokeColor=#d6b656;" parent="1" vertex="1">
          <mxGeometry x="-50" y="440" width="120" height="60" as="geometry" />
        </mxCell>
        <mxCell id="QKX7OT8OYN0VkF5D6OAT-15" style="edgeStyle=orthogonalEdgeStyle;rounded=0;orthogonalLoop=1;jettySize=auto;html=1;exitX=1;exitY=0.5;exitDx=0;exitDy=0;entryX=0;entryY=0.5;entryDx=0;entryDy=0;fillColor=#d5e8d4;strokeColor=#82b366;" edge="1" parent="1" source="AbjM8CAv7qtLpByGkBFY-41" target="QKX7OT8OYN0VkF5D6OAT-1">
          <mxGeometry relative="1" as="geometry" />
        </mxCell>
        <mxCell id="QKX7OT8OYN0VkF5D6OAT-20" style="edgeStyle=orthogonalEdgeStyle;rounded=0;orthogonalLoop=1;jettySize=auto;html=1;exitX=0.5;exitY=1;exitDx=0;exitDy=0;entryX=0;entryY=0.5;entryDx=0;entryDy=0;fillColor=#d5e8d4;strokeColor=#82b366;" edge="1" parent="1" source="AbjM8CAv7qtLpByGkBFY-41" target="QKX7OT8OYN0VkF5D6OAT-5">
          <mxGeometry relative="1" as="geometry" />
        </mxCell>
        <mxCell id="AbjM8CAv7qtLpByGkBFY-41" value="Складирование" style="rounded=0;whiteSpace=wrap;html=1;fillColor=#d5e8d4;strokeColor=#82b366;" parent="1" vertex="1">
          <mxGeometry x="120" y="560" width="120" height="60" as="geometry" />
        </mxCell>
        <mxCell id="QKX7OT8OYN0VkF5D6OAT-16" style="edgeStyle=orthogonalEdgeStyle;rounded=0;orthogonalLoop=1;jettySize=auto;html=1;exitX=1;exitY=0.5;exitDx=0;exitDy=0;entryX=0;entryY=0.5;entryDx=0;entryDy=0;fillColor=#d5e8d4;strokeColor=#82b366;" edge="1" parent="1" source="QKX7OT8OYN0VkF5D6OAT-1" target="QKX7OT8OYN0VkF5D6OAT-2">
          <mxGeometry relative="1" as="geometry" />
        </mxCell>
        <mxCell id="QKX7OT8OYN0VkF5D6OAT-1" value="Инструкция пользователя" style="rounded=0;whiteSpace=wrap;html=1;fillColor=#d5e8d4;strokeColor=#82b366;" vertex="1" parent="1">
          <mxGeometry x="280" y="560" width="120" height="60" as="geometry" />
        </mxCell>
        <mxCell id="QKX7OT8OYN0VkF5D6OAT-17" style="edgeStyle=orthogonalEdgeStyle;rounded=0;orthogonalLoop=1;jettySize=auto;html=1;exitX=0.5;exitY=0;exitDx=0;exitDy=0;entryX=0.5;entryY=1;entryDx=0;entryDy=0;fillColor=#d5e8d4;strokeColor=#82b366;" edge="1" parent="1" source="QKX7OT8OYN0VkF5D6OAT-2" target="QKX7OT8OYN0VkF5D6OAT-3">
          <mxGeometry relative="1" as="geometry" />
        </mxCell>
        <mxCell id="QKX7OT8OYN0VkF5D6OAT-2" value="Проверка на фокус-группах" style="rounded=0;whiteSpace=wrap;html=1;fillColor=#d5e8d4;strokeColor=#82b366;" vertex="1" parent="1">
          <mxGeometry x="440" y="560" width="120" height="60" as="geometry" />
        </mxCell>
        <mxCell id="QKX7OT8OYN0VkF5D6OAT-18" style="edgeStyle=orthogonalEdgeStyle;rounded=0;orthogonalLoop=1;jettySize=auto;html=1;exitX=1;exitY=0.5;exitDx=0;exitDy=0;entryX=0;entryY=0.5;entryDx=0;entryDy=0;fillColor=#d5e8d4;strokeColor=#82b366;" edge="1" parent="1" source="QKX7OT8OYN0VkF5D6OAT-3" target="QKX7OT8OYN0VkF5D6OAT-4">
          <mxGeometry relative="1" as="geometry" />
        </mxCell>
        <mxCell id="QKX7OT8OYN0VkF5D6OAT-3" value="Верстка и печать" style="rounded=0;whiteSpace=wrap;html=1;fillColor=#d5e8d4;strokeColor=#82b366;" vertex="1" parent="1">
          <mxGeometry x="440" y="460" width="120" height="60" as="geometry" />
        </mxCell>
        <mxCell id="QKX7OT8OYN0VkF5D6OAT-24" style="rounded=0;orthogonalLoop=1;jettySize=auto;html=1;exitX=1;exitY=0.5;exitDx=0;exitDy=0;entryX=0;entryY=0.25;entryDx=0;entryDy=0;" edge="1" parent="1" source="QKX7OT8OYN0VkF5D6OAT-4" target="QKX7OT8OYN0VkF5D6OAT-9">
          <mxGeometry relative="1" as="geometry" />
        </mxCell>
        <mxCell id="QKX7OT8OYN0VkF5D6OAT-4" value="Поддержка в актуальном состоянии" style="rounded=0;whiteSpace=wrap;html=1;fillColor=#d5e8d4;strokeColor=#82b366;" vertex="1" parent="1">
          <mxGeometry x="600" y="460" width="120" height="60" as="geometry" />
        </mxCell>
        <mxCell id="QKX7OT8OYN0VkF5D6OAT-21" style="edgeStyle=orthogonalEdgeStyle;rounded=0;orthogonalLoop=1;jettySize=auto;html=1;exitX=1;exitY=0.5;exitDx=0;exitDy=0;entryX=0;entryY=0.5;entryDx=0;entryDy=0;fillColor=#d5e8d4;strokeColor=#82b366;" edge="1" parent="1" source="QKX7OT8OYN0VkF5D6OAT-5" target="QKX7OT8OYN0VkF5D6OAT-6">
          <mxGeometry relative="1" as="geometry" />
        </mxCell>
        <mxCell id="QKX7OT8OYN0VkF5D6OAT-5" value="Документация для производства" style="rounded=0;whiteSpace=wrap;html=1;fillColor=#d5e8d4;strokeColor=#82b366;" vertex="1" parent="1">
          <mxGeometry x="280" y="660" width="120" height="60" as="geometry" />
        </mxCell>
        <mxCell id="QKX7OT8OYN0VkF5D6OAT-22" style="edgeStyle=orthogonalEdgeStyle;rounded=0;orthogonalLoop=1;jettySize=auto;html=1;exitX=1;exitY=0.5;exitDx=0;exitDy=0;entryX=0;entryY=0.5;entryDx=0;entryDy=0;fillColor=#d5e8d4;strokeColor=#82b366;" edge="1" parent="1" source="QKX7OT8OYN0VkF5D6OAT-6" target="QKX7OT8OYN0VkF5D6OAT-7">
          <mxGeometry relative="1" as="geometry" />
        </mxCell>
        <mxCell id="QKX7OT8OYN0VkF5D6OAT-6" value="Сервисная документация" style="rounded=0;whiteSpace=wrap;html=1;fillColor=#d5e8d4;strokeColor=#82b366;" vertex="1" parent="1">
          <mxGeometry x="440" y="660" width="120" height="60" as="geometry" />
        </mxCell>
        <mxCell id="QKX7OT8OYN0VkF5D6OAT-23" style="edgeStyle=orthogonalEdgeStyle;rounded=0;orthogonalLoop=1;jettySize=auto;html=1;exitX=0.5;exitY=0;exitDx=0;exitDy=0;entryX=0.5;entryY=1;entryDx=0;entryDy=0;fillColor=#d5e8d4;strokeColor=#82b366;" edge="1" parent="1" source="QKX7OT8OYN0VkF5D6OAT-7" target="QKX7OT8OYN0VkF5D6OAT-8">
          <mxGeometry relative="1" as="geometry" />
        </mxCell>
        <mxCell id="QKX7OT8OYN0VkF5D6OAT-7" value="Документация стендов, сервера, бд, сборочных окружений" style="rounded=0;whiteSpace=wrap;html=1;fillColor=#d5e8d4;strokeColor=#82b366;" vertex="1" parent="1">
          <mxGeometry x="600" y="660" width="120" height="60" as="geometry" />
        </mxCell>
        <mxCell id="QKX7OT8OYN0VkF5D6OAT-25" style="rounded=0;orthogonalLoop=1;jettySize=auto;html=1;exitX=1;exitY=0.5;exitDx=0;exitDy=0;entryX=0;entryY=0.75;entryDx=0;entryDy=0;" edge="1" parent="1" source="QKX7OT8OYN0VkF5D6OAT-8" target="QKX7OT8OYN0VkF5D6OAT-9">
          <mxGeometry relative="1" as="geometry" />
        </mxCell>
        <mxCell id="QKX7OT8OYN0VkF5D6OAT-8" value="Сертификация" style="rounded=0;whiteSpace=wrap;html=1;fillColor=#d5e8d4;strokeColor=#82b366;" vertex="1" parent="1">
          <mxGeometry x="600" y="560" width="120" height="60" as="geometry" />
        </mxCell>
        <mxCell id="QKX7OT8OYN0VkF5D6OAT-26" style="edgeStyle=orthogonalEdgeStyle;rounded=0;orthogonalLoop=1;jettySize=auto;html=1;exitX=0.5;exitY=1;exitDx=0;exitDy=0;entryX=0.5;entryY=0;entryDx=0;entryDy=0;fillColor=#ffe6cc;strokeColor=#d79b00;" edge="1" parent="1" source="QKX7OT8OYN0VkF5D6OAT-9" target="QKX7OT8OYN0VkF5D6OAT-10">
          <mxGeometry relative="1" as="geometry" />
        </mxCell>
        <mxCell id="QKX7OT8OYN0VkF5D6OAT-9" value="Каналы продаж" style="rounded=0;whiteSpace=wrap;html=1;fillColor=#ffe6cc;strokeColor=#d79b00;" vertex="1" parent="1">
          <mxGeometry x="760" y="510" width="120" height="60" as="geometry" />
        </mxCell>
        <mxCell id="QKX7OT8OYN0VkF5D6OAT-27" style="edgeStyle=orthogonalEdgeStyle;rounded=0;orthogonalLoop=1;jettySize=auto;html=1;exitX=0.5;exitY=1;exitDx=0;exitDy=0;entryX=0.5;entryY=0;entryDx=0;entryDy=0;fillColor=#ffe6cc;strokeColor=#d79b00;" edge="1" parent="1" source="QKX7OT8OYN0VkF5D6OAT-10" target="QKX7OT8OYN0VkF5D6OAT-11">
          <mxGeometry relative="1" as="geometry" />
        </mxCell>
        <mxCell id="QKX7OT8OYN0VkF5D6OAT-10" value="Фуллфилмент" style="rounded=0;whiteSpace=wrap;html=1;fillColor=#ffe6cc;strokeColor=#d79b00;" vertex="1" parent="1">
          <mxGeometry x="760" y="610" width="120" height="60" as="geometry" />
        </mxCell>
        <mxCell id="QKX7OT8OYN0VkF5D6OAT-28" style="edgeStyle=orthogonalEdgeStyle;rounded=0;orthogonalLoop=1;jettySize=auto;html=1;exitX=1;exitY=0.5;exitDx=0;exitDy=0;entryX=0;entryY=0.5;entryDx=0;entryDy=0;" edge="1" parent="1" source="QKX7OT8OYN0VkF5D6OAT-11" target="QKX7OT8OYN0VkF5D6OAT-12">
          <mxGeometry relative="1" as="geometry" />
        </mxCell>
        <mxCell id="QKX7OT8OYN0VkF5D6OAT-50" style="edgeStyle=orthogonalEdgeStyle;rounded=0;orthogonalLoop=1;jettySize=auto;html=1;exitX=0.5;exitY=1;exitDx=0;exitDy=0;entryX=0.5;entryY=0;entryDx=0;entryDy=0;" edge="1" parent="1" source="QKX7OT8OYN0VkF5D6OAT-11" target="QKX7OT8OYN0VkF5D6OAT-32">
          <mxGeometry relative="1" as="geometry" />
        </mxCell>
        <mxCell id="QKX7OT8OYN0VkF5D6OAT-11" value="Формирование и поддержка РРЦ" style="rounded=0;whiteSpace=wrap;html=1;fillColor=#ffe6cc;strokeColor=#d79b00;" vertex="1" parent="1">
          <mxGeometry x="760" y="710" width="120" height="60" as="geometry" />
        </mxCell>
        <mxCell id="QKX7OT8OYN0VkF5D6OAT-29" style="edgeStyle=orthogonalEdgeStyle;rounded=0;orthogonalLoop=1;jettySize=auto;html=1;exitX=0.5;exitY=0;exitDx=0;exitDy=0;entryX=0.5;entryY=1;entryDx=0;entryDy=0;fillColor=#e1d5e7;strokeColor=#9673a6;" edge="1" parent="1" source="QKX7OT8OYN0VkF5D6OAT-12" target="QKX7OT8OYN0VkF5D6OAT-13">
          <mxGeometry relative="1" as="geometry" />
        </mxCell>
        <mxCell id="QKX7OT8OYN0VkF5D6OAT-30" style="edgeStyle=orthogonalEdgeStyle;rounded=0;orthogonalLoop=1;jettySize=auto;html=1;exitX=0.5;exitY=1;exitDx=0;exitDy=0;entryX=0.5;entryY=0;entryDx=0;entryDy=0;fillColor=#e1d5e7;strokeColor=#9673a6;" edge="1" parent="1" source="QKX7OT8OYN0VkF5D6OAT-12" target="QKX7OT8OYN0VkF5D6OAT-14">
          <mxGeometry relative="1" as="geometry" />
        </mxCell>
        <mxCell id="QKX7OT8OYN0VkF5D6OAT-12" value="Поддержка" style="rounded=0;whiteSpace=wrap;html=1;fillColor=#e1d5e7;strokeColor=#9673a6;" vertex="1" parent="1">
          <mxGeometry x="920" y="710" width="120" height="60" as="geometry" />
        </mxCell>
        <mxCell id="QKX7OT8OYN0VkF5D6OAT-13" value="Колл-центры (скрипты) и хелпдеск" style="rounded=0;whiteSpace=wrap;html=1;fillColor=#e1d5e7;strokeColor=#9673a6;" vertex="1" parent="1">
          <mxGeometry x="920" y="600" width="120" height="60" as="geometry" />
        </mxCell>
        <mxCell id="QKX7OT8OYN0VkF5D6OAT-14" value="Статистика и телеметрия" style="rounded=0;whiteSpace=wrap;html=1;fillColor=#e1d5e7;strokeColor=#9673a6;" vertex="1" parent="1">
          <mxGeometry x="920" y="820" width="120" height="60" as="geometry" />
        </mxCell>
        <mxCell id="QKX7OT8OYN0VkF5D6OAT-36" style="edgeStyle=orthogonalEdgeStyle;rounded=0;orthogonalLoop=1;jettySize=auto;html=1;exitX=0;exitY=0.5;exitDx=0;exitDy=0;fillColor=#b1ddf0;strokeColor=#10739e;" edge="1" parent="1" source="QKX7OT8OYN0VkF5D6OAT-32" target="QKX7OT8OYN0VkF5D6OAT-33">
          <mxGeometry relative="1" as="geometry" />
        </mxCell>
        <mxCell id="QKX7OT8OYN0VkF5D6OAT-32" value="Жизненный цикл устройства" style="rounded=0;whiteSpace=wrap;html=1;fillColor=#b1ddf0;strokeColor=#10739e;" vertex="1" parent="1">
          <mxGeometry x="760" y="825" width="120" height="60" as="geometry" />
        </mxCell>
        <mxCell id="QKX7OT8OYN0VkF5D6OAT-43" style="rounded=0;orthogonalLoop=1;jettySize=auto;html=1;exitX=0;exitY=0.25;exitDx=0;exitDy=0;entryX=1;entryY=0.5;entryDx=0;entryDy=0;fillColor=#b1ddf0;strokeColor=#10739e;" edge="1" parent="1" source="QKX7OT8OYN0VkF5D6OAT-33" target="QKX7OT8OYN0VkF5D6OAT-37">
          <mxGeometry relative="1" as="geometry" />
        </mxCell>
        <mxCell id="QKX7OT8OYN0VkF5D6OAT-44" style="rounded=0;orthogonalLoop=1;jettySize=auto;html=1;exitX=0;exitY=0.75;exitDx=0;exitDy=0;entryX=1;entryY=0.5;entryDx=0;entryDy=0;fillColor=#b1ddf0;strokeColor=#10739e;" edge="1" parent="1" source="QKX7OT8OYN0VkF5D6OAT-33" target="QKX7OT8OYN0VkF5D6OAT-38">
          <mxGeometry relative="1" as="geometry" />
        </mxCell>
        <mxCell id="QKX7OT8OYN0VkF5D6OAT-33" value="Дефектовка и диагностика" style="rounded=0;whiteSpace=wrap;html=1;fillColor=#b1ddf0;strokeColor=#10739e;" vertex="1" parent="1">
          <mxGeometry x="600" y="825" width="120" height="60" as="geometry" />
        </mxCell>
        <mxCell id="QKX7OT8OYN0VkF5D6OAT-45" style="edgeStyle=orthogonalEdgeStyle;rounded=0;orthogonalLoop=1;jettySize=auto;html=1;exitX=0;exitY=0.5;exitDx=0;exitDy=0;entryX=1;entryY=0.5;entryDx=0;entryDy=0;fillColor=#b1ddf0;strokeColor=#10739e;" edge="1" parent="1" source="QKX7OT8OYN0VkF5D6OAT-37" target="QKX7OT8OYN0VkF5D6OAT-39">
          <mxGeometry relative="1" as="geometry" />
        </mxCell>
        <mxCell id="QKX7OT8OYN0VkF5D6OAT-37" value="Замена и ремонт" style="rounded=0;whiteSpace=wrap;html=1;fillColor=#b1ddf0;strokeColor=#10739e;" vertex="1" parent="1">
          <mxGeometry x="440" y="765" width="120" height="60" as="geometry" />
        </mxCell>
        <mxCell id="QKX7OT8OYN0VkF5D6OAT-46" style="edgeStyle=orthogonalEdgeStyle;rounded=0;orthogonalLoop=1;jettySize=auto;html=1;exitX=0;exitY=0.5;exitDx=0;exitDy=0;entryX=1;entryY=0.5;entryDx=0;entryDy=0;fillColor=#b1ddf0;strokeColor=#10739e;" edge="1" parent="1" source="QKX7OT8OYN0VkF5D6OAT-38" target="QKX7OT8OYN0VkF5D6OAT-40">
          <mxGeometry relative="1" as="geometry" />
        </mxCell>
        <mxCell id="QKX7OT8OYN0VkF5D6OAT-38" value="ЗИПы" style="rounded=0;whiteSpace=wrap;html=1;fillColor=#b1ddf0;strokeColor=#10739e;" vertex="1" parent="1">
          <mxGeometry x="440" y="875" width="120" height="60" as="geometry" />
        </mxCell>
        <mxCell id="QKX7OT8OYN0VkF5D6OAT-47" style="rounded=0;orthogonalLoop=1;jettySize=auto;html=1;exitX=0;exitY=0.5;exitDx=0;exitDy=0;entryX=1;entryY=0.25;entryDx=0;entryDy=0;fillColor=#b1ddf0;strokeColor=#10739e;" edge="1" parent="1" source="QKX7OT8OYN0VkF5D6OAT-39" target="QKX7OT8OYN0VkF5D6OAT-41">
          <mxGeometry relative="1" as="geometry" />
        </mxCell>
        <mxCell id="QKX7OT8OYN0VkF5D6OAT-39" value="Регламенты и инструкции для СЦ" style="rounded=0;whiteSpace=wrap;html=1;fillColor=#b1ddf0;strokeColor=#10739e;" vertex="1" parent="1">
          <mxGeometry x="280" y="765" width="120" height="60" as="geometry" />
        </mxCell>
        <mxCell id="QKX7OT8OYN0VkF5D6OAT-48" style="rounded=0;orthogonalLoop=1;jettySize=auto;html=1;exitX=0;exitY=0.5;exitDx=0;exitDy=0;entryX=1;entryY=0.75;entryDx=0;entryDy=0;fillColor=#b1ddf0;strokeColor=#10739e;" edge="1" parent="1" source="QKX7OT8OYN0VkF5D6OAT-40" target="QKX7OT8OYN0VkF5D6OAT-41">
          <mxGeometry relative="1" as="geometry" />
        </mxCell>
        <mxCell id="QKX7OT8OYN0VkF5D6OAT-40" value="Договора с СЦ" style="rounded=0;whiteSpace=wrap;html=1;fillColor=#b1ddf0;strokeColor=#10739e;" vertex="1" parent="1">
          <mxGeometry x="280" y="875" width="120" height="60" as="geometry" />
        </mxCell>
        <mxCell id="QKX7OT8OYN0VkF5D6OAT-49" style="edgeStyle=orthogonalEdgeStyle;rounded=0;orthogonalLoop=1;jettySize=auto;html=1;exitX=0;exitY=0.5;exitDx=0;exitDy=0;entryX=1;entryY=0.5;entryDx=0;entryDy=0;fillColor=#b1ddf0;strokeColor=#10739e;" edge="1" parent="1" source="QKX7OT8OYN0VkF5D6OAT-41" target="QKX7OT8OYN0VkF5D6OAT-42">
          <mxGeometry relative="1" as="geometry" />
        </mxCell>
        <mxCell id="QKX7OT8OYN0VkF5D6OAT-41" value="Расчет брака и срока гарантии" style="rounded=0;whiteSpace=wrap;html=1;fillColor=#b1ddf0;strokeColor=#10739e;" vertex="1" parent="1">
          <mxGeometry x="120" y="825" width="120" height="60" as="geometry" />
        </mxCell>
        <mxCell id="QKX7OT8OYN0VkF5D6OAT-42" value="Утилизация" style="rounded=0;whiteSpace=wrap;html=1;fillColor=#b1ddf0;strokeColor=#10739e;" vertex="1" parent="1">
          <mxGeometry x="-40" y="825" width="120" height="60" as="geometry" />
        </mxCell>
      </root>
    </mxGraphModel>
  </diagram>
</mxfile>
